<?xml version="1.0"?><svg width="640" height="480" xmlns="http://www.w3.org/2000/svg" xmlns:xlink="http://www.w3.org/1999/xlink">
 <defs>
  <linearGradient id="linearGradient4930">
   <stop stop-color="#ffffff" offset="0" id="stop4931"/>
   <stop stop-color="#ffffff" stop-opacity="0" offset="1" id="stop4932"/>
  </linearGradient>
  <radialGradient xlink:href="#linearGradient4930" r="27.894432" id="radialGradient8069" gradientUnits="userSpaceOnUse" gradientTransform="matrix(2.9469709396362305,0,-2.5903823375701904,0.9842433929443359,1713.05712890625,-2453.30859375)" fy="1138.5897" fx="613.52435" cy="1156.0232" cx="612.00226"/>
  <radialGradient xlink:href="#linearGradient4930" r="21.465179" id="radialGradient8070" gradientUnits="userSpaceOnUse" gradientTransform="matrix(2.2379376888275146,-0.781815230846405,-1.5696076154708862,1.5309926271438599,665.8779907226562,-1317.1748046875)" fy="835.95514" fx="406.02457" cy="851.52258" cx="405.73886"/>
  <radialGradient xlink:href="#linearGradient4930" r="21.465179" id="radialGradient8071" gradientUnits="userSpaceOnUse" gradientTransform="matrix(1.8152894973754883,-0.6341646313667297,-1.2731765508651733,1.241854190826416,781.3385620117188,-1188.6190185546875)" fy="835.95514" fx="406.02457" cy="851.52258" cx="405.73886"/>
 </defs>
 <g>
  <title>Layer 1</title>
  <g display="block" id="layer1">
   <g id="g8064">
    <path fill="#9f0000" fill-rule="evenodd" stroke="#000000" stroke-width="0.82515669pt" id="path1070" d="m346.022522,284.290283c-22.903625,0 -40.455444,-2.3797 -66.604553,-21.431702c-26.523895,-19.325058 -39.961472,-46.784302 -66.153412,-69.987061c-7.279556,-6.448837 -32.656616,-22.536285 -43.639557,-26.466217c22.153229,-11.840652 46.11319,-29.116623 54.700043,-35.335007c23.803619,-17.238098 43.87793,-40.529518 60.825256,-40.445084c13.44104,0.06852 28.397095,18.240608 60.872223,18.240608c33.018036,0 47.431213,-18.172089 60.872284,-18.240608c16.947296,-0.084435 37.021637,23.206985 60.825226,40.445084c8.586884,6.218384 32.546814,23.494354 54.700012,35.335007c-10.98291,3.929932 -36.359955,20.01738 -43.639557,26.466217c-26.191925,23.202759 -39.629456,50.662003 -66.153381,69.987061c-26.149078,19.052002 -44.243805,21.431702 -66.604584,21.431702zm0,-78.465469c-8.31427,0 -14.68576,-0.579697 -24.178162,-5.220627c-9.628479,-4.707535 -14.50647,-6.175629 -24.014435,-11.827728c-2.642578,-1.570923 -11.854706,-5.489685 -15.841644,-6.447021c8.04187,-2.884369 16.739563,-7.092682 19.85672,-8.607483c8.640961,-4.199066 15.928162,-9.872696 22.080231,-9.852203c4.879242,0.016724 10.308472,4.44339 22.09729,4.44339c11.985901,0 17.218048,-4.426666 22.09729,-4.44339c6.152069,-0.020493 13.43927,5.653137 22.080261,9.852203c3.117126,1.514801 11.814819,5.723114 19.85672,8.607483c-3.986938,0.957336 -13.199066,4.876099 -15.841675,6.447021c-9.507965,5.6521 -14.385956,7.120193 -24.014374,11.827728c-9.492432,4.64093 -16.061005,5.220627 -24.178223,5.220627z"/>
    <rect fill="url(#radialGradient8069)" fill-rule="evenodd" stroke-width="1.771653" stroke-linecap="round" stroke-miterlimit="4" y="987.725813" x="911.751885" width="88.696053" transform="matrix(1.2284, 0, -0.68898, 0.98984, -114.326, -775.418)" id="rect4935" height="56.618169"/>
    <rect fill="url(#radialGradient8070)" fill-rule="evenodd" stroke-width="1.771653" stroke-linecap="round" stroke-miterlimit="4" y="325.593305" x="368.055727" width="46.954342" transform="matrix(1.21582, -0.170646, -0.409831, 1.1271, -64.3808, -202.647)" id="rect7425" height="39.251331"/>
    <rect fill="url(#radialGradient8071)" fill-rule="evenodd" stroke-width="1.771653" stroke-linecap="round" stroke-miterlimit="4" y="339.408765" x="476.931607" width="38.086708" transform="matrix(1.21582, -0.170646, -0.409831, 1.1271, -64.3808, -202.647)" id="rect8048" height="31.838463"/>
   </g>
  </g>
 </g>
</svg>